<?xml version="1.0" encoding="utf-8"?>
<!-- Generator: Adobe Illustrator 19.2.1, SVG Export Plug-In . SVG Version: 6.00 Build 0)  -->
<svg version="1.1" id="Слой_1" xmlns="http://www.w3.org/2000/svg" xmlns:xlink="http://www.w3.org/1999/xlink" x="0px" y="0px"
	 viewBox="0 0 321.7 122.9" style="enable-background:new 0 0 321.7 122.9;" xml:space="preserve">
<style type="text/css">
	.st0{fill:url(#SVGID_1_);}
	.st1{fill:none;stroke:#000000;stroke-width:0.125;}
	.st2{stroke:#000000;stroke-width:0.125;}
	.st3{fill:url(#SVGID_2_);}
	.st4{fill:url(#SVGID_3_);}
	.st5{opacity:0.779;fill:url(#SVGID_4_);enable-background:new    ;}
	.st6{opacity:0.779;fill:url(#SVGID_5_);enable-background:new    ;}
	.st7{fill:url(#SVGID_6_);}
	.st8{fill:url(#SVGID_7_);}
	.st9{fill:url(#SVGID_8_);}
	.st10{fill:none;stroke:#858585;stroke-width:0.625;}
	.st11{opacity:0.5;fill:url(#SVGID_9_);enable-background:new    ;}
	
		.st12{opacity:0.5;fill:#D1D1D1;stroke:#000000;stroke-width:0.125;stroke-linecap:round;stroke-linejoin:round;enable-background:new    ;}
	.st13{fill:#CCCCCC;}
	.st14{fill:url(#SVGID_10_);}
	.st15{fill:url(#SVGID_11_);}
	.st16{fill:url(#SVGID_12_);}
	.st17{fill:#ECECEC;}
	.st18{fill:url(#SVGID_13_);}
	.st19{fill:url(#SVGID_14_);}
	.st20{opacity:0.9275;fill:url(#SVGID_15_);enable-background:new    ;}
	.st21{opacity:0.8841;fill:url(#SVGID_16_);enable-background:new    ;}
	.st22{fill:#E6E6E6;}
	.st23{opacity:0.913;fill:url(#SVGID_17_);enable-background:new    ;}
	.st24{fill:url(#SVGID_18_);}
	.st25{opacity:0.4094;fill:url(#SVGID_19_);enable-background:new    ;}
	.st26{opacity:0.4094;fill:url(#SVGID_20_);enable-background:new    ;}
	.st27{fill:url(#SVGID_21_);}
	.st28{fill:#F2F2F2;stroke:url(#SVGID_22_);stroke-width:0.125;stroke-linecap:round;stroke-linejoin:round;stroke-miterlimit:4.2;}
	.st29{fill:#F2F2F2;stroke:#000000;stroke-width:0.125;}
	.st30{fill:url(#SVGID_23_);}
	.st31{fill:url(#SVGID_24_);}
	.st32{fill:url(#SVGID_25_);}
	.st33{fill:url(#SVGID_26_);}
	.st34{fill:url(#SVGID_27_);}
	.st35{display:none;fill:#BBBBBB;stroke:#000000;stroke-width:0.125;stroke-linecap:round;stroke-linejoin:round;}
	.st36{display:none;fill:#4D4D4D;stroke:#000000;stroke-width:0.125;stroke-linecap:round;stroke-linejoin:round;}
	.st37{display:none;fill:url(#SVGID_28_);stroke:#000000;stroke-width:8.472000e-002;stroke-linecap:round;stroke-linejoin:round;}
	.st38{fill:url(#SVGID_29_);}
	.st39{fill:url(#SVGID_30_);stroke:url(#SVGID_31_);stroke-width:0.125;}
	.st40{display:none;}
	.st41{display:inline;opacity:0.5;fill:url(#SVGID_32_);enable-background:new    ;}
	
		.st42{display:inline;opacity:0.5;fill:url(#SVGID_33_);stroke:#000000;stroke-width:0.125;stroke-linecap:round;stroke-linejoin:round;enable-background:new    ;}
	.st43{display:inline;opacity:0.5;fill:url(#SVGID_34_);enable-background:new    ;}
	.st44{display:inline;fill:url(#SVGID_35_);}
	.st45{fill:#BBBBBB;stroke:#000000;stroke-width:0.125;stroke-linecap:round;stroke-linejoin:round;}
	.st46{fill:#4D4D4D;stroke:#000000;stroke-width:0.125;stroke-linecap:round;stroke-linejoin:round;}
	.st47{fill:url(#SVGID_36_);stroke:#000000;stroke-width:8.472000e-002;stroke-linecap:round;stroke-linejoin:round;}
	
		.st48{opacity:0.5;fill:url(#SVGID_37_);stroke:#000000;stroke-width:0.125;stroke-linecap:round;stroke-linejoin:round;enable-background:new    ;}
	.st49{fill:url(#SVGID_38_);}
	.st50{fill:url(#SVGID_39_);}
	.st51{fill:url(#SVGID_40_);}
	.st52{fill:none;stroke:#B2B2B2;stroke-width:0.375;}
	.st53{fill:url(#SVGID_41_);}
	.st54{opacity:0.4094;fill:url(#SVGID_42_);enable-background:new    ;}
	.st55{opacity:0.5;fill:url(#SVGID_43_);enable-background:new    ;}
	
		.st56{opacity:0.5;fill:url(#SVGID_44_);stroke:#000000;stroke-width:0.125;stroke-linecap:round;stroke-linejoin:round;enable-background:new    ;}
	.st57{opacity:0.5;fill:url(#SVGID_45_);enable-background:new    ;}
	.st58{fill:url(#SVGID_46_);}
</style>
<g transform="translate(147.15 -181.92)">
	
		<radialGradient id="SVGID_1_" cx="-365.757" cy="-160.2543" r="4.924738e-003" gradientTransform="matrix(0.8178 -0.1301 -6.806300e-002 -0.428 110.7175 253.2496)" gradientUnits="userSpaceOnUse">
		<stop  offset="0" style="stop-color:#1C1C1C"/>
		<stop  offset="1" style="stop-color:#666666;stop-opacity:0"/>
	</radialGradient>
	<path class="st0" d="M-177.5,369.4L-177.5,369.4"/>
	<path class="st1" d="M-153.2,184.1"/>
	<path class="st2" d="M153.7,274.5 M-153.2,184.1 M151.6,183c11.4,0,20.7,11.6,20.7,25.8s-9.3,25.8-20.7,25.8s-20.7-11.6-20.7-25.8
		S140.2,183,151.6,183z M-133,185.1c7.5,0.1,14.8,9,17,21.2c2.4,13.5-2.3,26-10.5,27.9s-16.8-7.5-19.2-20.9s2.3-26,10.5-27.9
		c0.5-0.1,1-0.2,1.5-0.2C-133.5,185.2-133.2,185.1-133,185.1L-133,185.1z"/>
	
		<linearGradient id="SVGID_2_" gradientUnits="userSpaceOnUse" x1="-60.1839" y1="-2.6594" x2="-60.1839" y2="-2.6594" gradientTransform="matrix(1 0 0 -1 147.15 219.3214)">
		<stop  offset="0" style="stop-color:#737373"/>
		<stop  offset="1" style="stop-color:#2F2F2F"/>
	</linearGradient>
	<path class="st3" d="M87,222"/>
	
		<linearGradient id="SVGID_3_" gradientUnits="userSpaceOnUse" x1="-66.784" y1="25.7206" x2="-66.784" y2="25.7206" gradientTransform="matrix(1 0 0 -1 147.15 219.3214)">
		<stop  offset="0" style="stop-color:#737373"/>
		<stop  offset="1" style="stop-color:#2F2F2F"/>
	</linearGradient>
	<path class="st4" d="M80.4,193.6"/>
	
		<radialGradient id="SVGID_4_" cx="99.6999" cy="-1208.903" r="0" gradientTransform="matrix(1.0903 -0.1153 -1.303700e-002 -0.1233 -14.628 36.875)" gradientUnits="userSpaceOnUse">
		<stop  offset="0" style="stop-color:#E4E4E4"/>
		<stop  offset="1" style="stop-color:#E4E4E4;stop-opacity:0"/>
	</radialGradient>
	<path class="st5" d="M109.8,174.5"/>
	
		<radialGradient id="SVGID_5_" cx="81.3107" cy="-1187.4065" r="0" gradientTransform="matrix(1.0903 -0.1153 -1.303700e-002 -0.1233 -14.628 36.875)" gradientUnits="userSpaceOnUse">
		<stop  offset="0" style="stop-color:#E4E4E4"/>
		<stop  offset="1" style="stop-color:#E4E4E4;stop-opacity:0"/>
	</radialGradient>
	<path class="st6" d="M89.5,173.9"/>
	
		<linearGradient id="SVGID_6_" gradientUnits="userSpaceOnUse" x1="64.7019" y1="23.2132" x2="64.7019" y2="23.2132" gradientTransform="matrix(1 0 0 -1 8.51 249.8264)">
		<stop  offset="0" style="stop-color:#737373"/>
		<stop  offset="1" style="stop-color:#2F2F2F"/>
	</linearGradient>
	<path class="st7" d="M73.2,226.6"/>
	
		<linearGradient id="SVGID_7_" gradientUnits="userSpaceOnUse" x1="68.2337" y1="20.432" x2="68.2337" y2="20.432" gradientTransform="matrix(1 0 0 -1 8.51 249.8264)">
		<stop  offset="0" style="stop-color:#737373"/>
		<stop  offset="1" style="stop-color:#2F2F2F"/>
	</linearGradient>
	<path class="st8" d="M76.7,229.4"/>
	
		<radialGradient id="SVGID_8_" cx="194.0656" cy="-405.7986" r="0" gradientTransform="matrix(1.6144 7.415300e-002 1.436800e-002 -0.3128 -200.2571 42.2523)" gradientUnits="userSpaceOnUse">
		<stop  offset="0" style="stop-color:#E0E0E0"/>
		<stop  offset="1" style="stop-color:#E0E0E0;stop-opacity:0"/>
	</radialGradient>
	<path class="st9" d="M107.2,183.6"/>
	<path class="st1" d="M108.6,236.6"/>
	<path class="st1" d="M152.2,181.9c21.7,5.7,34.5,40.9,5,54.6"/>
	<path class="st1" d="M107.2,182.6"/>
	<path class="st10" d="M185.5,204"/>
	<path class="st10" d="M164.5,175.5"/>
	<g transform="translate(-138.64 30.505)">
		
			<linearGradient id="SVGID_9_" gradientUnits="userSpaceOnUse" x1="-7.128" y1="10.1344" x2="12.818" y2="11.0144" gradientTransform="matrix(1 0 0 -1 8.51 188.8164)">
			<stop  offset="0" style="stop-color:#B4B4B4"/>
			<stop  offset="1" style="stop-color:#B4B4B4;stop-opacity:0"/>
		</linearGradient>
		<path class="st11" d="M4.9,154.7c-0.5,0-1,0.1-1.5,0.2c-8.2,1.9-12.9,14.4-10.5,27.9c1.6,9.1,6.1,16.4,11.4,19.5
			c4.8,0.3,8.7-0.6,13.4-3.8c-5.6,1.3-9.3,3.7-14.3,0.1c-2.9-5-9-8.7-6.1-16.1c8.8-2.9,15.6-0.5,23.8,2.8c0.7,0.1-0.3-2.2-0.3-2.2
			c-1.1-3.7-0.2-8.4-8.4-8.3l-0.5,2.1c-5.1,2.5-10.3,0.4-15.4,0.3c4.6-3.5,3.5-6.8-0.4-10c-0.2-5.2,1.7-4.3,3.5-3.8l1.1,1.1
			c3.6-1.1,6,0,8.8,0.6c-6.8-2.7-6-4.8-6.7-6.9c2.1-0.3,4.7,0.4,7.5,1.5L8.1,157c4,1.5,6.9,4.3,10.1,6.8
			C14.7,157.9,9.8,154.4,4.9,154.7L4.9,154.7z"/>
		<path class="st12" d="M22.6,175.8c2.5,13.5-2.2,26-10.3,28c-8.2,2-16.8-7.3-19.3-20.7c0-0.1,0-0.2-0.1-0.4
			c-2.5-13.5,2.2-26,10.3-28c8.2-2,16.8,7.3,19.3,20.7C22.5,175.6,22.6,175.7,22.6,175.8z"/>
	</g>
	<path class="st13" d="M-110.6,229.1"/>
	
		<linearGradient id="SVGID_10_" gradientUnits="userSpaceOnUse" x1="-87.3931" y1="15.805" x2="-87.3931" y2="15.805" gradientTransform="matrix(1 0 0 -1 8.51 249.8264)">
		<stop  offset="0" style="stop-color:#737373"/>
		<stop  offset="1" style="stop-color:#2F2F2F"/>
	</linearGradient>
	<path class="st14" d="M-78.9,234"/>
	
		<linearGradient id="SVGID_11_" gradientUnits="userSpaceOnUse" x1="-96.7892" y1="41.2856" x2="-93.4807" y2="44.5121" gradientTransform="matrix(1 0 0 -1 8.51 249.8264)">
		<stop  offset="0" style="stop-color:#CCCCCC"/>
		<stop  offset="1" style="stop-color:#CCCCCC;stop-opacity:0"/>
	</linearGradient>
	<path class="st15" d="M-84.4,207.6c-1.6,0.3-4.3,0.3-6.4,0.5h0.5"/>
	
		<linearGradient id="SVGID_12_" gradientUnits="userSpaceOnUse" x1="-90.1121" y1="43.3982" x2="-90.1121" y2="43.3982" gradientTransform="matrix(1 0 0 -1 8.51 249.8264)">
		<stop  offset="0" style="stop-color:#CCCCCC"/>
		<stop  offset="1" style="stop-color:#CCCCCC;stop-opacity:0"/>
	</linearGradient>
	<path class="st16" d="M-81.6,206.4"/>
	<path class="st17" d="M69.8,209.2c0,9-5,16.3-11.4,16.4c-6.3,0.1-11.5-7.2-11.5-16.1c0-0.1,0-0.2,0-0.2c0-9,5-16.3,11.4-16.4
		c6.3-0.1,11.5,7.2,11.5,16.1C69.8,209,69.8,209.1,69.8,209.2z"/>
	
		<linearGradient id="SVGID_13_" gradientUnits="userSpaceOnUse" x1="53.4569" y1="40.93" x2="69.0069" y2="40.93" gradientTransform="matrix(1 0 0 -1 8.51 249.8264)">
		<stop  offset="0" style="stop-color:#CCCCCC"/>
		<stop  offset="1" style="stop-color:#CCCCCC;stop-opacity:0"/>
	</linearGradient>
	<path class="st18" d="M63.7,190.4c-2.3,0-5.7,1.4-8.3,2.9v0.2c0.9-0.3,1.9-0.5,2.8-0.5c6.3,0,11.5,7.3,11.5,16.3
		s-5.1,16.2-11.5,16.2c-0.2,0-0.4,0-0.6,0l-6.2-3c4,4.6,12.1,6,17.8,4.4C79.5,221.3,81.3,193.5,63.7,190.4L63.7,190.4z"/>
	
		<linearGradient id="SVGID_14_" gradientUnits="userSpaceOnUse" x1="38.4823" y1="42.6448" x2="39.0595" y2="45.9055" gradientTransform="matrix(1 0 0 -1 8.51 249.8264)">
		<stop  offset="0" style="stop-color:#737373"/>
		<stop  offset="1" style="stop-color:#2F2F2F"/>
	</linearGradient>
	<path class="st19" d="M47,207.9c0.1-1.1,0.2-2.2,0.4-3.3"/>
	
		<radialGradient id="SVGID_15_" cx="814.2487" cy="1930.7192" r="5.089134e-004" gradientTransform="matrix(-2.0161 0.1773 9.899800e-003 0.1126 1807.8999 -156.3146)" gradientUnits="userSpaceOnUse">
		<stop  offset="0" style="stop-color:#CCCCCC"/>
		<stop  offset="1" style="stop-color:#CCCCCC;stop-opacity:0"/>
	</radialGradient>
	<path class="st20" d="M185.4,205.4L185.4,205.4"/>
	
		<radialGradient id="SVGID_16_" cx="-24.2892" cy="-1208.406" r="0" gradientTransform="matrix(0.7379 -6.118000e-002 -1.012000e-002 -0.1221 93.1572 9.0846)" gradientUnits="userSpaceOnUse">
		<stop  offset="0" style="stop-color:#E6E6E6;stop-opacity:0.8065"/>
		<stop  offset="1" style="stop-color:#E6E6E6;stop-opacity:0.3659"/>
	</radialGradient>
	<path class="st21" d="M87.5,158.1"/>
	<path class="st22" d="M-158.2,266.7"/>
	<path class="st22" d="M153.7,274.5"/>
	
		<radialGradient id="SVGID_17_" cx="166.0544" cy="-580.4222" r="4.4326" gradientTransform="matrix(2.3964 9.235100e-002 9.015700e-003 -0.234 -303.9219 16.7186)" gradientUnits="userSpaceOnUse">
		<stop  offset="0" style="stop-color:#E4E4E4"/>
		<stop  offset="1" style="stop-color:#E4E4E4;stop-opacity:0"/>
	</radialGradient>
	<path class="st23" d="M94.1,168.5c-2,2.6-4.5,2.7-6.7,3.6"/>
	
		<linearGradient id="SVGID_18_" gradientUnits="userSpaceOnUse" x1="101.0459" y1="13.3982" x2="101.0459" y2="13.3982" gradientTransform="matrix(1 0 0 -1 8.51 249.8264)">
		<stop  offset="0" style="stop-color:#B3B3B3"/>
		<stop  offset="1" style="stop-color:#B3B3B3;stop-opacity:0"/>
	</linearGradient>
	<path class="st24" d="M109.6,236.4"/>
	
		<radialGradient id="SVGID_19_" cx="63.5157" cy="123.1397" r="0" gradientTransform="matrix(0.7089 -0.6171 -0.636 -0.7306 211.4277 423.5547)" gradientUnits="userSpaceOnUse">
		<stop  offset="0" style="stop-color:#CCCCCC"/>
		<stop  offset="1" style="stop-color:#CCCCCC;stop-opacity:0.5254"/>
	</radialGradient>
	<path class="st25" d="M178.1,294.4"/>
	
		<radialGradient id="SVGID_20_" cx="81.5137" cy="173.685" r="18.5334" gradientTransform="matrix(0.7089 -0.6171 -0.636 -0.7306 211.4277 423.5547)" gradientUnits="userSpaceOnUse">
		<stop  offset="0" style="stop-color:#CCCCCC"/>
		<stop  offset="1" style="stop-color:#CCCCCC;stop-opacity:0.5254"/>
	</radialGradient>
	<path class="st26" d="M179.9,242.1l-44.4,1.3"/>
	
		<linearGradient id="SVGID_21_" gradientUnits="userSpaceOnUse" x1="-119.731" y1="42.0285" x2="-105.31" y2="42.0285" gradientTransform="matrix(0.998 -6.438700e-002 -6.056300e-002 -0.9388 23.0812 240.2939)">
		<stop  offset="0" style="stop-color:#CCCCCC"/>
		<stop  offset="1" style="stop-color:#CCCCCC;stop-opacity:0"/>
	</linearGradient>
	<path class="st27" d="M-97.8,192c-1.9,0-10.5,2.7-10.6,3.8c0.4-0.1,3.2-1.2,3.5-1.3c0.7-0.1,1.5,0,2.2,0.1c0.4,0.1,0.7,0.2,1.1,0.3
		c0,0,0,0,0,0c0.3,0.1,0.7,0.3,1,0.4c0,0,0,0,0,0c0.7,0.3,1.3,0.7,1.9,1.2c0.3,0.2,0.6,0.5,0.9,0.8c0,0,0,0,0,0
		c0.6,0.6,1.2,1.2,1.7,1.9c1.8,2.5,3,5.7,3.4,9.4c0.9,8.3-3.2,15.6-9.1,16.2c-0.4,0-2.6-0.2-2.9-0.2c2.6,1,9.4,0.5,12.6,0
		c10.6-6.6,12-26.6-4.3-32.7C-96.5,191.8-97.5,192-97.8,192L-97.8,192z"/>
	
		<radialGradient id="SVGID_22_" cx="-132.983" cy="111.4041" r="10.7987" gradientTransform="matrix(0.987 -9.785800e-002 -0.1442 -1.3999 43.9876 352.5562)" gradientUnits="userSpaceOnUse">
		<stop  offset="0" style="stop-color:#999999"/>
		<stop  offset="1" style="stop-color:#999999;stop-opacity:0"/>
	</radialGradient>
	<path class="st28" d="M-92.7,208.6c0.9,8.3-3.1,15.7-9,16.3c-5.9,0.7-11.4-5.6-12.3-13.9c0-0.1,0-0.2,0-0.3
		c-0.9-8.3,3.1-15.7,9-16.3c5.9-0.7,11.4,5.6,12.3,13.9C-92.7,208.4-92.7,208.5-92.7,208.6z"/>
	<path class="st29" d="M-106.6,208.8"/>
	<path class="st29" d="M-91.2,208.1L-91.2,208.1"/>
	
		<radialGradient id="SVGID_23_" cx="114.0189" cy="-3641.7461" r="0" gradientTransform="matrix(1.3316 0 0 -5.140300e-002 -52.3399 69.4938)" gradientUnits="userSpaceOnUse">
		<stop  offset="0" style="stop-color:#999999"/>
		<stop  offset="1" style="stop-color:#999999;stop-opacity:0"/>
	</radialGradient>
	<path class="st30" d="M99.5,256.7"/>
	
		<radialGradient id="SVGID_24_" cx="134.4347" cy="93.428" r="9.4332" gradientTransform="matrix(1.1857 -0.5784 -0.5416 -1.2653 36.2953 488.9724)" gradientUnits="userSpaceOnUse">
		<stop  offset="0" style="stop-color:#000000"/>
		<stop  offset="1" style="stop-color:#B9B9B9"/>
	</radialGradient>
	<path class="st31" d="M152.1,287.3c4.3,5.7,4.7,12.9,0.8,16c-3.9,3.2-10.5,1.1-14.8-4.6c-4.3-5.7-4.7-12.9-0.8-16
		C141.1,279.5,147.8,281.6,152.1,287.3z"/>
	
		<radialGradient id="SVGID_25_" cx="168.1828" cy="-50.7162" r="9.6149" gradientTransform="matrix(0.8814 0.205 0.2972 -1.072 3.8209 202.6172)" gradientUnits="userSpaceOnUse">
		<stop  offset="0" style="stop-color:#969696;stop-opacity:0.6452"/>
		<stop  offset="1" style="stop-color:#6D6D6D;stop-opacity:0.5323"/>
	</radialGradient>
	<path class="st32" d="M151.1,288.8c3.5,4.6,3.8,10.4,0.7,12.9c-3.1,2.5-8.5,0.9-12-3.7c-3.5-4.6-3.8-10.4-0.7-12.9
		C142.3,282.5,147.6,284.2,151.1,288.8z"/>
	
		<radialGradient id="SVGID_26_" cx="226.634" cy="60.9379" r="5.6848" gradientTransform="matrix(1.8958 -0.1677 -0.1698 -1.919 -271.0538 448.4346)" gradientUnits="userSpaceOnUse">
		<stop  offset="0" style="stop-color:#FF7F2A"/>
		<stop  offset="1" style="stop-color:#FFD65C"/>
	</radialGradient>
	<path class="st33" d="M145.8,284.5c-0.4,0.2-0.8,0.4-1.1,0.7c-3.1,2.5-2.8,8.4,0.7,13c1.5,2,3.4,3.5,5.3,4.3
		c0.4-0.2,0.7-0.4,1.1-0.7c3.1-2.5,2.8-8.3-0.7-12.9C149.6,286.8,147.7,285.3,145.8,284.5L145.8,284.5z"/>
	
		<linearGradient id="SVGID_27_" gradientUnits="userSpaceOnUse" x1="131.4834" y1="-46.5367" x2="149.2934" y2="-36.6067" gradientTransform="matrix(1 0 0 -1 8.51 249.8264)">
		<stop  offset="0" style="stop-color:#000000"/>
		<stop  offset="1" style="stop-color:#B9B9B9"/>
	</linearGradient>
	<path class="st34" d="M143.6,280.6c-2.8,0.2-3.4,0.6-4.3,0.9c3.9-1.3,9.1,0.9,12.8,5.7c4.3,5.7,4.7,12.9,0.8,16.1
		c-0.6,0.5-1.3,0.8-2,1.1c1.4,0.5,5.7-1.9,7.6-3.8C159.1,290,153.4,280.4,143.6,280.6L143.6,280.6z"/>
	<path class="st35" d="M-137.2,291.2c0,0-0.1-0.1-0.1-0.1c-5.2-6.3-6.4-13.2-2.9-15.5c3.6-2.2,10.6,1.1,15.8,7.4
		c0,0,0.1,0.1,0.1,0.1"/>
	<path class="st36" d="M-129.2,285.4c3.1,4.6,3.9,8.9,1.7,9.7c-2.2,0.8-6.4-2.3-9.5-6.9c0,0,0-0.1-0.1-0.1c-3.1-4.6-3.9-8.9-1.7-9.7
		C-136.7,277.7-132.4,280.8-129.2,285.4C-129.3,285.4-129.2,285.4-129.2,285.4z"/>
	
		<radialGradient id="SVGID_28_" cx="-139.1698" cy="47.9048" r="4.4273" gradientTransform="matrix(1 0 0 -1.7639 8.51 371.945)" gradientUnits="userSpaceOnUse">
		<stop  offset="0" style="stop-color:#FF7F2A"/>
		<stop  offset="1" style="stop-color:#FFD65C"/>
	</radialGradient>
	<path class="st37" d="M-134.7,279.7c-0.4,1.7-0.5,4.1,0,6.8c0.4,2.6,1.3,4.9,2.2,6.7c1.9,1.5,3.7,2.3,4.9,1.9
		c2.2-0.7,1.4-5.1-1.7-9.7C-130.9,283-132.9,281-134.7,279.7z"/>
	
		<radialGradient id="SVGID_29_" cx="-97.5501" cy="-975.5336" r="10.1365" gradientTransform="matrix(1 0 0 -0.1657 8.51 79.5396)" gradientUnits="userSpaceOnUse">
		<stop  offset="0" style="stop-color:#F7F7F7;stop-opacity:0.728"/>
		<stop  offset="1" style="stop-color:#C4C4C4;stop-opacity:0.208"/>
	</radialGradient>
	<path class="st38" d="M-103,241.5l28-0.6"/>
	
		<radialGradient id="SVGID_30_" cx="-86.2301" cy="-420.329" r="6.4362" gradientTransform="matrix(1 0 0 -0.3253 147.15 104.0053)" gradientUnits="userSpaceOnUse">
		<stop  offset="0" style="stop-color:#F7F7F7"/>
		<stop  offset="1" style="stop-color:#C4C4C4;stop-opacity:0"/>
	</radialGradient>
	
		<radialGradient id="SVGID_31_" cx="-30.0468" cy="-425.0486" r="5.2455" gradientTransform="matrix(1.3987 0 0 -0.3228 102.9465 103.562)" gradientUnits="userSpaceOnUse">
		<stop  offset="0" style="stop-color:#F7F7F7"/>
		<stop  offset="1" style="stop-color:#C4C4C4;stop-opacity:0"/>
	</radialGradient>
	<path class="st39" d="M51.9,240.9L51.9,240.9l18-0.3"/>
	<g transform="translate(-138.64 30.505)" class="st40">
		
			<linearGradient id="SVGID_32_" gradientUnits="userSpaceOnUse" x1="260.9969" y1="7.1442" x2="302.4969" y2="7.1442" gradientTransform="matrix(1 0 0 -1 8.51 188.8164)">
			<stop  offset="0" style="stop-color:#E6E6E6;stop-opacity:0.8871"/>
			<stop  offset="1" style="stop-color:#E6E6E6;stop-opacity:0"/>
		</linearGradient>
		<path class="st41" d="M276.4,159.1c-4.2,4.7-6.9,11.6-6.9,19.2c0,14.3,9.3,25.8,20.7,25.8h0.1l9.7-5.3l-6.4-0.3
			c0,0,3.4-6.7,4.7-6.7s-11.5,0.6-11.5,0.6l-5.2,0.8l-0.8-2.3l6.3-6.2l1.4-2.5l10.4-0.2l1.7,1.2l7.5,0.2l0.9-8.2h-3.6l-4.8,0.8
			l-3.6-0.3l-2.5-2.5l-2.9,3.1l-8.4,0.2c0,0-10.1-2.9-10.9-3.3l2.2-3.6l18.1-0.9l-9.2-2.2l10.4-2.2L276.4,159.1L276.4,159.1z"/>
		
			<linearGradient id="SVGID_33_" gradientUnits="userSpaceOnUse" x1="258.2977" y1="17.0162" x2="258.8077" y2="17.4662" gradientTransform="matrix(0.8583 0 0 -0.971 79.9284 183.535)">
			<stop  offset="0" style="stop-color:#E6E6E6;stop-opacity:0.8871"/>
			<stop  offset="1" style="stop-color:#E6E6E6;stop-opacity:0"/>
		</linearGradient>
		<path class="st42" d="M311,178.4c0.1,14.3-9.1,25.9-20.6,26c-11.4,0.1-20.8-11.4-20.8-25.7c0-0.1,0-0.2,0-0.3
			c-0.1-14.3,9.1-25.9,20.6-26c11.4-0.1,20.8,11.4,20.8,25.7C311,178.1,311,178.2,311,178.4z"/>
		
			<radialGradient id="SVGID_34_" cx="474.8178" cy="-58.0561" r="13.125" gradientTransform="matrix(0.7516 0.6597 0.6789 -0.7735 -14.4638 -189.4847)" gradientUnits="userSpaceOnUse">
			<stop  offset="0" style="stop-color:#888888;stop-opacity:0.7016"/>
			<stop  offset="1" style="stop-color:#040404;stop-opacity:0.621"/>
		</radialGradient>
		<path class="st43" d="M290.3,152.5c-1.7,0-3.2,0.2-4.8,0.7l-0.8,0.5c25.7,0.1,27.1,25.3,20.4,42.7c3.6-4.7,5.9-11,5.9-18
			C310.9,164.1,301.7,152.5,290.3,152.5L290.3,152.5z"/>
		
			<linearGradient id="SVGID_35_" gradientUnits="userSpaceOnUse" x1="261.0607" y1="7.147" x2="300.5607" y2="7.147" gradientTransform="matrix(1 0 0 -1 8.51 188.8164)">
			<stop  offset="0" style="stop-color:#CCCCCC"/>
			<stop  offset="1" style="stop-color:#CCCCCC;stop-opacity:0"/>
		</linearGradient>
		<path class="st44" d="M276.4,159.1c-0.1,0.1-0.2,0.3-0.3,0.4c-0.1,0.2-0.3,0.3-0.4,0.5c-0.5,0.6-0.9,1.2-1.4,1.9c0,0,0,0,0,0.1
			c-0.4,0.6-0.8,1.3-1.2,1.9c0,0.1-0.1,0.2-0.1,0.3c-0.1,0.3-0.3,0.5-0.4,0.8c-0.1,0.1-0.1,0.2-0.2,0.3c-0.1,0.3-0.2,0.5-0.3,0.8
			c-0.1,0.3-0.3,0.6-0.4,1l-0.1,0.3c0,0.1-0.1,0.2-0.1,0.3c-0.1,0.2-0.1,0.4-0.2,0.7c-0.1,0.2-0.1,0.5-0.2,0.7
			c-0.1,0.3-0.2,0.6-0.3,0.9c0,0.2-0.1,0.3-0.1,0.5c-0.1,0.2-0.1,0.5-0.2,0.7c0,0.1-0.1,0.2-0.1,0.3c0,0.1-0.1,0.3-0.1,0.4
			c-0.1,0.4-0.2,0.7-0.2,1.1c0,0.1,0,0.1,0,0.2c-0.1,0.8-0.2,1.6-0.3,2.4c0,0.4-0.1,0.8-0.1,1.2c0,0.1,0,0.2,0,0.3
			c0,0.5,0,0.9,0,1.4c0,0.4,0,0.9,0,1.3s0,0.8,0.1,1.3c0,0,0,0,0,0c0.1,0.9,0.2,1.7,0.3,2.6c0.6,3.4,1.6,6.5,3.1,9.2
			c0.4,0.7,0.8,1.4,1.2,2c1.1,1.6,2.3,3,3.6,4.3c0.5,0.5,1.1,1,1.7,1.4c2.3,1.7,4.8,2.9,7.6,3.4c0.7,0.1,1.4,0.2,2.1,0.3
			c0.4,0,0.7,0,1.1,0h0.1l9.7-5.3l-6.4-0.3c0,0,3.4-6.7,4.7-6.7s-11.5,0.6-11.5,0.6l-5.2,0.8l-0.8-2.3l6.3-6.2l1.4-2.5l10.4-0.2
			l1.7,1.2l7.5,0.2l0.9-8.2h-3.6l-4.8,0.8l-3.6-0.3l-2.5-2.5l-2.9,3.1l-8.4,0.2c0,0-10.1-2.9-10.9-3.3l2.2-3.6l18.1-0.9l-9.2-2.2
			l10.4-2.2L276.4,159.1z"/>
	</g>
</g>
<path class="st45" d="M23,101.2c5.2,6.3,6.4,13.2,2.9,15.5c-3.6,2.2-10.6-1.1-15.8-7.4c0,0-0.1-0.1-0.1-0.1
	C4.8,102.9,3.5,96,7.1,93.7c3.6-2.2,10.6,1.1,15.8,7.4C22.9,101.2,22.9,101.2,23,101.2z"/>
<path class="st46" d="M17.9,103.5c3.1,4.6,3.9,8.9,1.7,9.7s-6.4-2.3-9.5-6.9c0,0,0-0.1-0.1-0.1c-3.1-4.6-3.9-8.9-1.7-9.7
	C10.5,95.7,14.7,98.8,17.9,103.5C17.9,103.5,17.9,103.5,17.9,103.5z"/>
<radialGradient id="SVGID_36_" cx="7.943" cy="-134.0152" r="4.4273" gradientTransform="matrix(1 0 0 -1.7639 8.51 -130.8637)" gradientUnits="userSpaceOnUse">
	<stop  offset="0" style="stop-color:#FF7F2A"/>
	<stop  offset="1" style="stop-color:#FFD65C"/>
</radialGradient>
<path class="st47" d="M12.4,97.8c-0.4,1.7-0.5,4.1,0,6.8c0.4,2.6,1.3,4.9,2.2,6.7c1.9,1.5,3.7,2.3,4.9,1.9c2.2-0.7,1.4-5.1-1.7-9.7
	C16.2,101.1,14.2,99,12.4,97.8z"/>
<linearGradient id="SVGID_37_" gradientUnits="userSpaceOnUse" x1="266.2206" y1="-135.3026" x2="266.7305" y2="-134.8526" gradientTransform="matrix(0.8583 0 0 -0.971 81.1344 -114.8994)">
	<stop  offset="0" style="stop-color:#E6E6E6;stop-opacity:0.8871"/>
	<stop  offset="1" style="stop-color:#E6E6E6;stop-opacity:0"/>
</linearGradient>
<path class="st48" d="M319,27.8c0.1,14.3-9.1,25.9-20.6,26c-11.4,0.1-20.8-11.4-20.8-25.7c0-0.1,0-0.2,0-0.3
	c-0.1-14.3,9.1-25.9,20.6-26c11.4-0.1,20.8,11.4,20.8,25.7C319,27.6,319,27.7,319,27.8z"/>
<radialGradient id="SVGID_38_" cx="122.6027" cy="-348.892" r="0" gradientTransform="matrix(0.8178 -0.1301 -6.806300e-002 -0.428 125.1433 12.6047)" gradientUnits="userSpaceOnUse">
	<stop  offset="0" style="stop-color:#1C1C1C"/>
	<stop  offset="1" style="stop-color:#666666;stop-opacity:0"/>
</radialGradient>
<path class="st49" d="M249.2,146"/>
<radialGradient id="SVGID_39_" cx="839.455" cy="-417.7089" r="0" gradientTransform="matrix(0.8178 -0.1301 -6.806300e-002 -0.428 125.1433 12.6047)" gradientUnits="userSpaceOnUse">
	<stop  offset="0" style="stop-color:#1C1C1C"/>
	<stop  offset="1" style="stop-color:#666666;stop-opacity:0"/>
</radialGradient>
<path class="st50" d="M840.1,82.2"/>
<radialGradient id="SVGID_40_" cx="122.5909" cy="-348.8878" r="0" gradientTransform="matrix(0.8178 -0.1301 -6.806300e-002 -0.428 125.1433 12.6047)" gradientUnits="userSpaceOnUse">
	<stop  offset="0" style="stop-color:#1C1C1C"/>
	<stop  offset="1" style="stop-color:#666666;stop-opacity:0"/>
</radialGradient>
<path class="st51" d="M249.1,146"/>
<path class="st2" d="M296.4,32.1"/>
<path class="st2" d="M298.3,1.6c11.4,0,20.7,11.6,20.7,25.8s-9.3,25.8-20.7,25.8s-20.7-11.6-20.7-25.8S286.8,1.6,298.3,1.6z"/>
<path class="st52" d="M761.5-87.1"/>
<radialGradient id="SVGID_41_" cx="381.8109" cy="-572.9004" r="0" gradientTransform="matrix(1.6144 7.415300e-002 1.436800e-002 -0.3128 -288.0522 -207.4857)" gradientUnits="userSpaceOnUse">
	<stop  offset="0" style="stop-color:#E0E0E0"/>
	<stop  offset="1" style="stop-color:#E0E0E0;stop-opacity:0"/>
</radialGradient>
<path class="st53" d="M320.1,0"/>
<path class="st1" d="M298.8,0.5c21.7,5.7,34.5,40.9,5,54.6"/>
<path class="st22" d="M296.4,32.1"/>
<radialGradient id="SVGID_42_" cx="257.3123" cy="3.0256" r="8.4153" gradientTransform="matrix(0.7089 -0.6171 -0.636 -0.7306 138.568 199.5357)" gradientUnits="userSpaceOnUse">
	<stop  offset="0" style="stop-color:#CCCCCC"/>
	<stop  offset="1" style="stop-color:#CCCCCC;stop-opacity:0.5254"/>
</radialGradient>
<path class="st54" d="M321.5,27.2c0.9,9.6-1.9,15.1-5.6,19.6"/>
<g transform="translate(-138.64 30.505)">
	
		<linearGradient id="SVGID_43_" gradientUnits="userSpaceOnUse" x1="407.6469" y1="-175.2758" x2="449.1469" y2="-175.2758" gradientTransform="matrix(1 0 0 -1 8.51 -175.0236)">
		<stop  offset="0" style="stop-color:#E6E6E6;stop-opacity:0.8871"/>
		<stop  offset="1" style="stop-color:#E6E6E6;stop-opacity:0"/>
	</linearGradient>
	<path class="st55" d="M423.1-22.3c-4.2,4.7-6.9,11.6-6.9,19.2c0,14.3,9.3,25.8,20.7,25.8h0.1l9.7-5.3l-6.4-0.3c0,0,3.4-6.7,4.7-6.7
		s-11.5,0.6-11.5,0.6l-5.2,0.8l-0.8-2.3l6.3-6.2l1.4-2.5l10.4-0.2l1.7,1.2l7.5,0.2l0.9-8.2h-3.6l-4.8,0.8l-3.6-0.3l-2.5-2.5
		l-2.9,3.1l-8.4,0.2c0,0-10.1-2.9-10.9-3.3l2.2-3.6l18.1-0.9l-9.2-2.2l10.4-2.2L423.1-22.3L423.1-22.3z"/>
	
		<linearGradient id="SVGID_44_" gradientUnits="userSpaceOnUse" x1="404.8652" y1="-165.4188" x2="405.3752" y2="-164.9688" gradientTransform="matrix(0.8583 0 0 -0.971 100.781 -175.0238)">
		<stop  offset="0" style="stop-color:#E6E6E6;stop-opacity:0.8871"/>
		<stop  offset="1" style="stop-color:#E6E6E6;stop-opacity:0"/>
	</linearGradient>
	<path class="st56" d="M457.6-3.1c0.1,14.3-9.1,25.9-20.6,26c-11.4,0.1-20.8-11.4-20.8-25.7c0-0.1,0-0.2,0-0.3
		c-0.1-14.3,9.1-25.9,20.6-26c11.4-0.1,20.8,11.4,20.8,25.7C457.6-3.3,457.6-3.2,457.6-3.1z"/>
	
		<radialGradient id="SVGID_45_" cx="621.9219" cy="-240.6617" r="13.125" gradientTransform="matrix(0.7516 0.6597 0.6789 -0.7735 145.5927 -609.18)" gradientUnits="userSpaceOnUse">
		<stop  offset="0" style="stop-color:#888888;stop-opacity:0.7016"/>
		<stop  offset="1" style="stop-color:#040404;stop-opacity:0.621"/>
	</radialGradient>
	<path class="st57" d="M436.9-28.9c-1.7,0-3.2,0.2-4.8,0.7l-0.8,0.5C457-27.6,458.5-2.4,451.7,15c3.6-4.7,5.9-11,5.9-18
		C457.6-17.3,448.3-28.9,436.9-28.9L436.9-28.9z"/>
	
		<linearGradient id="SVGID_46_" gradientUnits="userSpaceOnUse" x1="407.7107" y1="-175.2731" x2="447.2107" y2="-175.2731" gradientTransform="matrix(1 0 0 -1 8.51 -175.0236)">
		<stop  offset="0" style="stop-color:#CCCCCC"/>
		<stop  offset="1" style="stop-color:#CCCCCC;stop-opacity:0"/>
	</linearGradient>
	<path class="st58" d="M423.1-22.3C423.1-22.3,423.1-22.3,423.1-22.3c-0.3,0.4-0.5,0.6-0.8,0.9c-0.5,0.6-0.9,1.2-1.4,1.9
		c0,0,0,0,0,0.1c-0.4,0.6-0.8,1.3-1.2,1.9c0,0.1-0.1,0.2-0.1,0.3c-0.1,0.3-0.3,0.5-0.4,0.8c-0.1,0.1-0.1,0.2-0.2,0.3
		c-0.1,0.3-0.2,0.5-0.3,0.8c-0.1,0.3-0.3,0.6-0.4,1l-0.1,0.3c0,0.1-0.1,0.2-0.1,0.3c-0.1,0.2-0.1,0.4-0.2,0.7
		c-0.1,0.2-0.1,0.5-0.2,0.7c-0.1,0.3-0.2,0.6-0.3,0.9c0,0.2-0.1,0.3-0.1,0.5c-0.1,0.2-0.1,0.5-0.2,0.7c0,0.1-0.1,0.2-0.1,0.3
		c0,0.1-0.1,0.3-0.1,0.4c-0.1,0.4-0.2,0.7-0.2,1.1c0,0.1,0,0.1,0,0.2c-0.1,0.8-0.2,1.6-0.3,2.4c0,0.4-0.1,0.8-0.1,1.2
		c0,0.1,0,0.2,0,0.3c0,0.5,0,0.9,0,1.4c0,0.4,0,0.9,0,1.3s0,0.8,0.1,1.3c0,0,0,0,0,0c0.1,0.9,0.2,1.7,0.3,2.6
		c0.6,3.4,1.6,6.5,3.1,9.2c0.4,0.7,0.8,1.4,1.2,2c1.1,1.6,2.3,3,3.6,4.3c0.5,0.5,1.1,1,1.7,1.4c2.3,1.7,4.8,2.9,7.6,3.4
		c0.7,0.1,1.4,0.2,2.1,0.3c0.4,0,0.7,0,1.1,0h0.1l9.7-5.3l-6.4-0.3c0,0,3.4-6.7,4.7-6.7s-11.5,0.6-11.5,0.6l-5.2,0.8l-0.8-2.3
		l6.3-6.2l1.4-2.5l10.4-0.2l1.7,1.2l7.5,0.2l0.9-8.2h-3.6l-4.8,0.8l-3.6-0.3l-2.5-2.5l-2.9,3.1l-8.4,0.2c0,0-10.1-2.9-10.9-3.3
		l2.2-3.6l18.1-0.9l-9.2-2.2l10.4-2.2L423.1-22.3z"/>
</g>
</svg>
