<?xml version="1.0" encoding="utf-8"?>
<!-- Generator: Adobe Illustrator 19.2.1, SVG Export Plug-In . SVG Version: 6.00 Build 0)  -->
<svg version="1.1" id="Слой_1" xmlns="http://www.w3.org/2000/svg" xmlns:xlink="http://www.w3.org/1999/xlink" x="0px" y="0px"
	 viewBox="0 0 141.9 156.7" style="enable-background:new 0 0 141.9 156.7;" xml:space="preserve">
<style type="text/css">
	.st0{fill:url(#SVGID_1_);}
	.st1{fill:url(#SVGID_2_);}
	.st2{fill:url(#SVGID_3_);}
	.st3{fill:url(#SVGID_4_);}
	.st4{fill:url(#SVGID_5_);}
	.st5{fill:url(#SVGID_6_);}
	.st6{fill:none;stroke:#010101;stroke-width:0.1304;stroke-linecap:round;stroke-linejoin:round;}
	.st7{fill:#B4B4B4;stroke:#010101;stroke-width:0.1224;stroke-linecap:round;stroke-linejoin:round;}
	.st8{fill:#010101;stroke:#010101;stroke-width:0.1304;stroke-linecap:round;stroke-linejoin:round;}
	.st9{fill:#ECECEC;stroke:#010101;stroke-width:0.1304;stroke-linecap:round;stroke-linejoin:round;}
	.st10{fill:#B4B4B4;}
	.st11{fill:#676767;}
	.st12{fill:url(#SVGID_7_);}
	.st13{fill:#E6E6E5;}
	.st14{fill:none;stroke:#010101;stroke-width:0.125;}
</style>
<radialGradient id="SVGID_1_" cx="-548.2921" cy="-118.9828" r="0" gradientTransform="matrix(0.8178 -0.1301 -6.806300e-002 -0.428 65.4799 30.8827)" gradientUnits="userSpaceOnUse">
	<stop  offset="0" style="stop-color:#1C1C1C"/>
	<stop  offset="1" style="stop-color:#676767;stop-opacity:0"/>
</radialGradient>
<path class="st0" d="M-374.8,153.1"/>
<radialGradient id="SVGID_2_" cx="623.5911" cy="-323.6543" r="0" gradientTransform="matrix(0.8178 -0.1301 -6.806300e-002 -0.428 65.4799 30.8827)" gradientUnits="userSpaceOnUse">
	<stop  offset="0" style="stop-color:#1C1C1C"/>
	<stop  offset="1" style="stop-color:#676767;stop-opacity:0"/>
</radialGradient>
<path class="st1" d="M597.5,88.3"/>
<radialGradient id="SVGID_3_" cx="-56.3029" cy="-292.2262" r="0" gradientTransform="matrix(0.8178 -0.1301 -6.806300e-002 -0.428 65.4799 30.8827)" gradientUnits="userSpaceOnUse">
	<stop  offset="0" style="stop-color:#1C1C1C"/>
	<stop  offset="1" style="stop-color:#676767;stop-opacity:0"/>
</radialGradient>
<path class="st2" d="M39.3,163.3"/>
<radialGradient id="SVGID_4_" cx="-548.304" cy="-118.9786" r="0" gradientTransform="matrix(0.8178 -0.1301 -6.806300e-002 -0.428 65.4799 30.8827)" gradientUnits="userSpaceOnUse">
	<stop  offset="0" style="stop-color:#1C1C1C"/>
	<stop  offset="1" style="stop-color:#676767;stop-opacity:0"/>
</radialGradient>
<path class="st3" d="M-374.8,153.1"/>
<radialGradient id="SVGID_5_" cx="-0.3335" cy="-1442.4976" r="5.8103" gradientTransform="matrix(1 0 0 -8.538200e-002 8.51 -4.4619)" gradientUnits="userSpaceOnUse">
	<stop  offset="0" style="stop-color:#ECECEC"/>
	<stop  offset="1" style="stop-color:#ECECEC;stop-opacity:0"/>
</radialGradient>
<path class="st4" d="M8.7,119.4L7.6,118"/>
<radialGradient id="SVGID_6_" cx="-4.3017" cy="-629.285" r="3.7788" gradientTransform="matrix(1 0 0 -0.1967 8.51 -15.3654)" gradientUnits="userSpaceOnUse">
	<stop  offset="0" style="stop-color:#CDCCCC"/>
	<stop  offset="1" style="stop-color:#CDCCCC;stop-opacity:0"/>
</radialGradient>
<path class="st5" d="M4,107.4l0.5,2.1"/>
<g transform="translate(-138.64 30.505)">
	<path class="st6" d="M231.3-10.9c20.8,0,37.7,26.7,37.7,59.5S252.1,108,231.3,108s-37.7-26.6-37.7-59.5S210.5-10.9,231.3-10.9z"/>
	<path class="st7" d="M228.9-7.3c19.5,0,35.4,25,35.4,55.8s-15.8,55.8-35.4,55.8s-35.4-25-35.4-55.8S209.4-7.3,228.9-7.3z"/>
	<path class="st8" d="M231.8-30.6c-26.9,0-48.8,35.1-48.8,78.3s21.9,78.4,48.8,78.4s48.8-35.1,48.8-78.4S258.7-30.6,231.8-30.6
		L231.8-30.6z M231.3-10.9c20.8,0,37.7,26.7,37.7,59.5S252.1,108,231.3,108s-37.7-26.6-37.7-59.5S210.5-10.9,231.3-10.9L231.3-10.9z
		"/>
	<path class="st9" d="M231.3-10.9c20.8,0,37.7,26.7,37.7,59.5S252.1,108,231.3,108s-37.7-26.6-37.7-59.5S210.5-10.9,231.3-10.9z"/>
	<path class="st10" d="M260.5,48.6c0.1,29.9-14.8,54.2-33.2,54.4c-18.4,0.1-33.5-24-33.5-53.9c0-0.2,0-0.3,0-0.5
		C193.6,18.7,208.5-5.7,227-5.8c18.4-0.1,33.5,24,33.5,53.9C260.5,48.2,260.5,48.4,260.5,48.6z"/>
	<path class="st6" d="M231.2-30.6l-47.5,0.2c-25.2,3-45.1,36.9-45.1,78.1c0,43.3,21.9,76,48.8,76l43.9,2.5c-0.1,0-0.1-0.1-0.2-0.1
		c-26.6-0.6-48.1-35.4-48.1-78.3C183,4.8,204.6-30.1,231.2-30.6L231.2-30.6z"/>
	<path class="st11" d="M255.2,48.6c0.1,25.4-12.6,46-28.2,46.2c-15.6,0.1-28.4-20.4-28.5-45.7c0-0.1,0-0.3,0-0.4
		c-0.1-25.4,12.6-46,28.2-46.2c15.6-0.1,28.4,20.4,28.5,45.7C255.2,48.3,255.2,48.4,255.2,48.6z"/>
	<path class="st8" d="M231.2-30.6l-47.5,0.2c-25.2,3-45.1,36.9-45.1,78.1c0,43.3,21.9,76,48.8,76l43.9,2.5c-0.1,0-0.1-0.1-0.2-0.1
		c-26.6-0.6-48.1-35.4-48.1-78.3C183,4.8,204.6-30.1,231.2-30.6L231.2-30.6z"/>
	
		<radialGradient id="SVGID_7_" cx="296.6752" cy="-63.5415" r="31.156" gradientTransform="matrix(1.8296 -0.3568 -0.2824 -1.4486 -335.9357 55.7385)" gradientUnits="userSpaceOnUse">
		<stop  offset="0" style="stop-color:#ECECEC"/>
		<stop  offset="1" style="stop-color:#ECECEC;stop-opacity:0"/>
	</radialGradient>
	<path class="st12" d="M224.8-1.9c-16.1,0-29.3,19.9-30.9,45.3c-0.1,0.8-0.1,1.7-0.1,2.6c0,0.9,0,1.7,0,2.6s0,1.7,0,2.6
		s0.1,1.7,0.1,2.6c1.6,25.4,14.8,45.3,30.9,45.3c17.2,0,31.1-22.6,31.1-50.4S242-1.9,224.8-1.9L224.8-1.9z M227.9,4.8
		c1.3,0.1,2.5,0.4,3.8,0.9l-2.9,14.6L224,5.4C225.3,4.9,226.6,4.9,227.9,4.8L227.9,4.8z M221.6,6.2L226,22c1.3,4.4-3.9,5.4-4.9,2.5
		l-3.7-15.4C218.9,7.2,219.7,6.8,221.6,6.2L221.6,6.2z M234.6,6.9c1.5,0,2.6,1.4,3.4,2.7l-1,13.2c-0.1,4.6-4.9,3.9-5,0.8l1.6-16.5
		C233.9,7,234.2,6.9,234.6,6.9L234.6,6.9z M215.1,10.7l3.7,15.3l-9.4-8.8C210.9,14.9,212.6,12.6,215.1,10.7L215.1,10.7z M240.4,11.1
		c2.2,1.1,3.9,3.6,5.6,6.3l-6.7,8.2L240.4,11.1L240.4,11.1z M207.5,19.3l9.4,8.9c4,3.7-0.2,10.1-4.6,6.1l-8.4-7.7
		C204.6,23.7,205.8,21.6,207.5,19.3z M247.1,20.8c2.1,0.8,2.6,3.9,2.2,5.7l-5.6,9.1c-3.3,3.2-4.7-5.5-2.6-7.7L247.1,20.8z
		 M203.2,28.7l9.4,10.6l-11.8,0.8C200.5,38.9,202.7,28.3,203.2,28.7L203.2,28.7z M251.1,29.8c1.7,3.4,1.4,6.5,1.2,10.3l-8.3-0.5
		L251.1,29.8L251.1,29.8z M222.8,30.8c3.6,4.4-1.1,8.7-2.8,7.8C220.5,36.1,220.9,33.5,222.8,30.8z M234.5,31.1
		c0.8,0,1.6,0.2,2.3,0.8c2.6,2.2-3.2,10.4-6.5,5.4C229.6,33.6,232.1,31.2,234.5,31.1L234.5,31.1z M226.4,37.4c2.9,0,5.2,4.4,5.2,9.8
		s-2.3,9.8-5.2,9.8s-5.2-4.4-5.2-9.8S223.5,37.4,226.4,37.4z M245.4,42.8c0.1,0,0.2,0,0.3,0l6.8,0.1c0.6,1,0.7,6.4,0.5,8.1l-6.9,0.4
		C241.7,51.5,242.9,43,245.4,42.8z M211.9,43.3c3.4,0.1,3.5,9-0.3,8.9L200.3,52l0.1-8.3L211.9,43.3L211.9,43.3z M236.8,48.7
		c2.2-0.1,4.4,1.8,3.3,5.1c-1.8,5.2-7.9,1.6-6.5-2.7C234.2,49.5,235.5,48.7,236.8,48.7L236.8,48.7z M217.3,48.9
		c3.8,0.5,3.8,5.4-0.1,6.4C217.1,52.9,216.8,51.2,217.3,48.9z M253,54.4c-0.7,3.5-1.4,6.9-2.8,10l-6.1-9.3L253,54.4L253,54.4z
		 M200.8,54.9l11.4,0.7c0,0-9.3,9.8-9.9,10.8C201.7,67.4,199.9,55.1,200.8,54.9L200.8,54.9z M243.1,58.5c0.2,0,0.4,0,0.6,0.1l5.5,9
		c-0.2,1.9-1.6,4.4-2.8,6.3l-5.8-6.4C239,64.5,240.1,58.6,243.1,58.5L243.1,58.5z M214.3,58.8c2.9,0.1,4.1,6.1,2.1,7.7l-10.1,9.1
		l-2.9-6l9.6-10.4C213.4,58.9,213.9,58.8,214.3,58.8L214.3,58.8z M226.2,58.8c2.7-0.1,4.7,6.8,3,7.4c-1.8,0.7-7-5.2-3.9-7.2
		C225.6,58.9,225.9,58.9,226.2,58.8L226.2,58.8z M234.3,68.8c0.6,0,1.3,0.3,1.7,0.9l0.5,15.4c-0.7,1.4-3.1,2.6-4.5,2.9l-1.1-15.7
		C231.3,70.1,232.9,68.7,234.3,68.8L234.3,68.8z M222.7,69.3c2,0,3.9,2.7,2.5,6.6l-5.4,13c-1.7-0.7-3.3-1.5-4.1-2.9l4.6-14.8
		C220.9,69.9,221.8,69.3,222.7,69.3L222.7,69.3z M238.5,71l6.1,5.6c-1.1,2.8-3.3,4.7-5.7,6.4L238.5,71L238.5,71z M217.3,70l-3.7,15
		c-2.2-1.9-4.4-3.8-6-7L217.3,70L217.3,70z M228.1,76.5l2.2,12c-2.4,1.5-5,1.1-7.7,0.5C222.6,89.1,228.1,77.2,228.1,76.5L228.1,76.5
		z"/>
	<path class="st13" d="M222.5,53.4l3.1,2.7c2.6-3.9,4.2-8.5,4.8-13.8l-3.3-2.8C226,44.3,224.7,49.2,222.5,53.4L222.5,53.4z"/>
</g>
<path class="st14" d="M26.5,89"/>
<path class="st14" d="M139.7,101.1c0.5-1.5,1.4-2.6,1.3-4.7"/>
<path class="st14" d="M306.5,75.1"/>
</svg>
